<svg width="234" height="46" viewBox="0 0 234 46" fill="none" xmlns="http://www.w3.org/2000/svg">
<path d="M69.3597 1.05696C70.4983 0.44691 72.0964 0.270577 73.0841 1.17415C74.0717 2.07772 73.8343 3.4172 73.0841 5.52553C73.0841 5.52553 71.4139 9.97877 69.6938 14.5744L69.2521 15.7572C67.6829 19.952 66.1869 23.9573 66.0038 24.4786C64.3414 29.1279 68.1867 28.9932 70.4695 24.3121C71.7557 21.6901 73.4037 17.3497 73.4037 17.3497C73.9852 15.6379 74.1605 14.6072 73.8021 14.2524C73.6833 14.1286 73.852 13.9764 74.0018 13.8986C76.5199 12.6402 79.14 13.8198 77.704 17.5239L77.6441 17.675C77.2146 18.7461 74.6699 25.0492 74.6699 25.0492C73.9197 26.8673 74.0096 28.5934 75.1338 28.5934C75.8951 28.589 76.754 28.1718 77.6907 27.4018C79.7082 25.7546 81.2663 22.6791 81.8267 21.4284C82.082 20.872 83.033 18.7779 83.7866 16.6521C84.0485 15.9237 84.196 15.1625 84.2249 14.3904C84.2056 14.2949 84.2157 14.196 84.2541 14.1063C84.2925 14.0167 84.3574 13.9405 84.4402 13.8877C85.0108 13.5877 85.647 13.4298 86.2935 13.4277C86.6068 13.4219 86.9171 13.4888 87.1995 13.6229C87.4818 13.757 87.7284 13.9546 87.9193 14.1998C88.4109 14.8548 88.5474 15.9292 88.0336 17.2752C87.9004 17.6257 83.8443 28.1816 83.8443 28.1816V28.2101C86.1093 26.8706 88.139 26.772 89.3409 27.2748L89.3375 27.2605C90.9966 27.9691 91.546 29.9329 90.3785 31.1585C90.2642 31.279 89.9768 31.2505 89.9768 31.0599C89.8725 29.6876 87.1835 27.232 83.1973 29.8825L83.0364 30.3042L81.8511 33.3796C78.9436 41.066 75.8551 46.6714 71.4028 45.4272C68.4198 44.5949 68.7649 40.3815 71.9743 36.8953C74.1967 34.556 76.6052 32.3959 79.1766 30.4356C79.2521 30.2297 79.3209 30.0523 79.3853 29.876C79.6938 29.0217 79.9301 28.3054 80.2642 27.3952L80.4406 26.8279C80.2431 27.047 79.888 27.4555 79.6505 27.7172C78.8603 28.5934 76.8828 30.7368 73.7366 30.1344L73.4769 30.0775C71.2019 29.5211 70.5827 27.9023 70.5305 26.4884C68.1534 29.3973 65.702 30.2407 64.0862 30.2012C61.9244 30.1487 60.3374 28.543 61.3928 25.5027C62.5669 22.1009 67.4964 8.71048 68.9336 4.69315C69.4718 2.96267 69.6727 1.86743 69.1378 1.43591C69.0013 1.3231 69.1955 1.14567 69.3597 1.05696ZM78.6417 32.5757C77.4177 33.5395 72.5092 37.5371 71.1487 40.7254C70.5882 42.0364 70.7314 43.079 71.6902 43.171C73.8653 43.3835 76.1426 38.9894 78.6018 32.7531L78.6417 32.5757ZM17.7871 5.86177C17.6906 6.22539 16.3234 10.0894 14.7897 14.3488L14.5577 14.9906L14.3247 15.6357L14.0861 16.2972C19.292 15.0672 28.584 9.10148 29.6615 5.25172C29.7947 5.07539 29.9834 5.01077 30.2896 5.21339C30.839 5.57481 31.0509 6.47838 30.839 7.31405C29.9911 10.6414 23.7188 15.3542 18.2111 17.778C18.8902 19.5709 21.1874 24.6418 22.8787 27.7567C24.7242 31.1727 26.6741 32.7674 29.7004 32.9448C31.3206 33.0379 33.0452 32.4552 34.0206 31.6086L34.1849 31.4553L34.1705 31.4881C34.3858 31.2647 34.7376 31.5725 34.5766 31.8419C33.9596 32.75 33.1389 33.5057 32.1781 34.0502C31.2174 34.5947 30.1425 34.9136 29.0367 34.982C21.9953 35.4496 19.2997 30.7434 14.2725 19.1076C13.8664 19.2456 13.3747 19.423 12.8798 19.6004C12.7966 19.8052 10.5826 25.7798 10.516 25.978C9.46841 29.1213 9.40071 30.843 10.1187 31.3392C10.2796 31.4378 10.2008 31.7039 9.92119 31.7926C7.11683 32.6644 4.53554 31.0303 5.97157 26.9276C7.25999 23.2958 12.2861 9.20662 13.6444 5.43243C14.1183 4.01519 13.863 3.10505 13.0984 2.90681C9.43955 1.94958 0.973223 9.58229 2.1873 16.6301C2.39815 17.8568 3.27486 18.5435 3.71654 18.4515C3.7406 18.4468 3.76549 18.448 3.78894 18.4551C3.8124 18.4623 3.83368 18.4751 3.85087 18.4923C3.86806 18.5096 3.88061 18.5309 3.88738 18.5542C3.89415 18.5774 3.89494 18.602 3.88966 18.6257C3.76667 19.0414 3.48316 19.3928 3.10019 19.6042C2.71723 19.8156 2.26545 19.8701 1.84216 19.756C0.543748 19.4756 0.118711 18.1011 0.0476869 17.3924C-0.666996 10.0981 6.82275 1.3472 13.7487 0.635291C16.3877 0.361481 18.8647 1.68672 17.7882 5.86177H17.7871ZM44.4657 16.7189L44.3991 16.9456L41.2585 25.8827C40.9211 26.8137 41.1475 27.7851 41.8145 27.9659C43.7643 28.4938 46.2846 25.6166 47.5086 22.7821C48.0971 21.4059 48.6433 20.0125 49.1466 18.6038C49.7925 16.8043 50.374 15.1176 50.0156 14.3236C49.9323 14.1396 50.0655 14.0432 50.263 13.9402C50.8235 13.661 52.7334 13.0367 53.7488 14.0147C54.5201 14.7529 54.4246 15.9544 53.7155 17.7791L53.609 18.0441L53.8531 17.7451C56.8528 14.1308 59.1711 13.0443 61.1364 13.8055L61.2996 13.8734C63.9419 15.0497 62.5713 19.5851 58.9513 19.8753C58.7294 19.894 58.5563 19.7373 58.776 19.4296C59.2143 18.767 59.1711 17.3388 57.8926 17.215C56.6142 17.0912 54.752 18.537 53.4114 20.3299C52.2084 21.918 50.97 24.6133 49.7248 28.2955C49.423 29.1914 49.5661 29.4039 49.6027 29.4641C49.6113 29.48 49.6158 29.4977 49.6158 29.5156C49.6158 29.5336 49.6113 29.5513 49.6027 29.5671C49.444 29.865 48.5318 30.2199 47.6496 30.2199C45.8462 30.2122 45.1071 29.1849 45.4667 27.5508C43.4158 29.4828 41.3484 30.4137 39.5239 30.2516C39.1225 30.2172 38.7334 30.0977 38.383 29.9014C38.0327 29.705 37.7294 29.4363 37.4939 29.1137C37.2583 28.7911 37.0961 28.4222 37.0182 28.032C36.9403 27.6419 36.9486 27.2398 37.0425 26.8531C35.46 28.8344 33.1118 30.4323 30.7202 30.2122C28.3287 29.9931 26.8361 28.3875 27.6107 24.9682C28.2655 22.1228 29.3774 19.1744 30.0599 17.272C30.6303 15.6773 30.7458 14.6357 30.3862 14.2601C30.2719 14.1352 30.4472 13.9862 30.6015 13.9052C32.477 12.9348 35.4778 13.5613 34.6299 16.1942C33.7399 18.9619 32.1274 23.3023 31.8 24.299C30.9821 26.8038 31.4782 28.1575 32.6379 28.22C33.7976 28.2857 35.3346 27.1685 36.4333 25.4786C38.3864 22.7142 39.2975 19.2521 40.1809 16.8459C40.4073 16.2326 40.7657 14.8022 40.3862 14.2699C40.2852 14.1352 40.4606 13.9873 40.6914 13.8625C42.3971 12.9326 45.4467 13.1615 44.4668 16.7189H44.4657Z" fill="#5F0080"/>
<path d="M113.835 16.976H119.139V14.456H110.715V29.144H112.227C115.467 29.144 117.651 29.048 120.123 28.568L119.859 25.976C117.915 26.36 116.139 26.504 113.835 26.552V16.976ZM121.467 20.024H117.627V22.592H121.467V33.08H124.419V12.368H121.467V20.024ZM126.051 11.936V34.04H129.051V11.936H126.051ZM147.289 11.936V34.112H150.457V11.936H147.289ZM138.577 13.496C135.241 13.496 132.769 16.52 132.769 21.368C132.769 26.24 135.241 29.288 138.577 29.288C141.913 29.288 144.385 26.24 144.385 21.368C144.385 16.52 141.913 13.496 138.577 13.496ZM138.577 16.352C140.209 16.352 141.337 18.104 141.337 21.368C141.337 24.656 140.209 26.408 138.577 26.408C136.945 26.408 135.817 24.656 135.817 21.368C135.817 18.104 136.945 16.352 138.577 16.352ZM158.375 22.424H164.711V19.952H158.375V16.352H165.455V13.808H155.231V29.096H157.031C160.751 29.096 163.583 29.024 166.775 28.52L166.487 25.976C163.775 26.408 161.351 26.528 158.375 26.552V22.424ZM169.607 11.936V19.736H165.815V22.28H169.607V34.112H172.775V11.936H169.607ZM195.142 11.96H192.142V28.496H195.142V11.96ZM187.726 27.848H190.678V12.344H187.726V17H185.086V19.568H187.726V27.848ZM187.078 22.712C184.318 21.368 183.262 18.872 183.262 16.28V13.448H180.19V16.28C180.19 18.92 179.038 21.776 176.014 23.264L177.742 25.664C179.686 24.752 180.982 23.168 181.774 21.296C182.47 22.952 183.622 24.32 185.35 25.136L187.078 22.712ZM183.43 31.16V26.576H180.262V33.68H195.694V31.16H183.43ZM202.532 22.424H208.868V19.952H202.532V16.352H209.612V13.808H199.388V29.096H201.188C204.908 29.096 207.74 29.024 210.932 28.52L210.644 25.976C207.932 26.408 205.508 26.528 202.532 26.552V22.424ZM213.764 11.936V19.736H209.972V22.28H213.764V34.112H216.932V11.936H213.764ZM220.832 26.6211H225.695V31.1211H228.684V26.6211H233.559V23.6328H228.684V19.1211H225.695V23.6328H220.832V26.6211Z" fill="#5F0080"/>
</svg>
